<svg width="16" height="16" viewBox="0 0 16 16" fill="none" xmlns="http://www.w3.org/2000/svg">
<mask id="mask0_276_133" style="mask-type:alpha" maskUnits="userSpaceOnUse" x="0" y="0" width="16" height="16">
<rect width="16" height="16" fill="#D9D9D9"/>
</mask>
<g mask="url(#mask0_276_133)">
<path d="M8 10.6666L10.6667 7.99998L8 5.33331L7.06667 6.26665L8.13333 7.33331H5.33333V8.66665H8.13333L7.06667 9.73331L8 10.6666ZM8 14.6666C7.07778 14.6666 6.21111 14.4916 5.4 14.1416C4.58889 13.7916 3.88333 13.3166 3.28333 12.7166C2.68333 12.1166 2.20833 11.4111 1.85833 10.6C1.50833 9.78887 1.33333 8.9222 1.33333 7.99998C1.33333 7.07776 1.50833 6.21109 1.85833 5.39998C2.20833 4.58887 2.68333 3.88331 3.28333 3.28331C3.88333 2.68331 4.58889 2.20831 5.4 1.85831C6.21111 1.50831 7.07778 1.33331 8 1.33331C8.92222 1.33331 9.78889 1.50831 10.6 1.85831C11.4111 2.20831 12.1167 2.68331 12.7167 3.28331C13.3167 3.88331 13.7917 4.58887 14.1417 5.39998C14.4917 6.21109 14.6667 7.07776 14.6667 7.99998C14.6667 8.9222 14.4917 9.78887 14.1417 10.6C13.7917 11.4111 13.3167 12.1166 12.7167 12.7166C12.1167 13.3166 11.4111 13.7916 10.6 14.1416C9.78889 14.4916 8.92222 14.6666 8 14.6666ZM8 13.3333C9.48889 13.3333 10.75 12.8166 11.7833 11.7833C12.8167 10.75 13.3333 9.48887 13.3333 7.99998C13.3333 6.51109 12.8167 5.24998 11.7833 4.21665C10.75 3.18331 9.48889 2.66665 8 2.66665C6.51111 2.66665 5.25 3.18331 4.21667 4.21665C3.18333 5.24998 2.66667 6.51109 2.66667 7.99998C2.66667 9.48887 3.18333 10.75 4.21667 11.7833C5.25 12.8166 6.51111 13.3333 8 13.3333Z" fill="white"/>
</g>
</svg>
