<svg width="257" height="258" viewBox="0 0 257 258" fill="none" xmlns="http://www.w3.org/2000/svg">
<g filter="url(#filter0_d_15_516)">
<path d="M63.4979 67.4735L63.4979 81.0866L60.999 81.0866L60.999 58.2245L58.5 55.8101L58.5 83.5031L73.0192 83.5031L70.5192 81.0866L66.0031 81.0866L66.0031 73.3077L68.1089 75.3442L68.501 75.7222L69.0551 76.2577L79.0509 85.9195L68.4959 85.9195L70.9422 88.336L85.0775 88.336L63.4979 67.4735Z" fill="url(#paint0_linear_15_516)"/>
<path d="M82.502 76.5245L82.502 62.9104L85.002 62.9104L85.002 85.7735L87.4999 88.1879L87.4999 60.4949L72.9869 60.4949L75.4859 62.9104L80.003 62.9104L80.003 70.6893L66.9552 58.0805L77.5051 58.0805L75.0577 55.664L60.9224 55.664L82.502 76.5245Z" fill="url(#paint1_linear_15_516)"/>
<path d="M82.5391 82.7532L63.1359 63.9826L63.0181 60.7408L82.4223 79.5123L82.5391 82.7532Z" fill="url(#paint2_linear_15_516)"/>
</g>
<defs>
<filter id="filter0_d_15_516" x="-110.2" y="-113.036" width="366.4" height="370.072" filterUnits="userSpaceOnUse" color-interpolation-filters="sRGB">
<feFlood flood-opacity="0" result="BackgroundImageFix"/>
<feColorMatrix in="SourceAlpha" type="matrix" values="0 0 0 0 0 0 0 0 0 0 0 0 0 0 0 0 0 0 127 0" result="hardAlpha"/>
<feOffset/>
<feGaussianBlur stdDeviation="84.35"/>
<feComposite in2="hardAlpha" operator="out"/>
<feColorMatrix type="matrix" values="0 0 0 0 1 0 0 0 0 0.843137 0 0 0 0 0 0 0 0 0.5 0"/>
<feBlend mode="normal" in2="BackgroundImageFix" result="effect1_dropShadow_15_516"/>
<feBlend mode="normal" in="SourceGraphic" in2="effect1_dropShadow_15_516" result="shape"/>
</filter>
<linearGradient id="paint0_linear_15_516" x1="58.5" y1="72.072" x2="85.0796" y2="72.072" gradientUnits="userSpaceOnUse">
<stop stop-color="#FFD700"/>
<stop offset="0.02" stop-color="#FCD403"/>
<stop offset="0.22" stop-color="#E6BE19"/>
<stop offset="0.43" stop-color="#D7AD29"/>
<stop offset="0.68" stop-color="#CEA432"/>
<stop offset="1" stop-color="#CBA135"/>
</linearGradient>
<linearGradient id="paint1_linear_15_516" x1="60.9213" y1="71.926" x2="87.4999" y2="71.926" gradientUnits="userSpaceOnUse">
<stop stop-color="#FFD700"/>
<stop offset="0.02" stop-color="#FCD403"/>
<stop offset="0.22" stop-color="#E6BE19"/>
<stop offset="0.43" stop-color="#D7AD29"/>
<stop offset="0.68" stop-color="#CEA432"/>
<stop offset="1" stop-color="#CBA135"/>
</linearGradient>
<linearGradient id="paint2_linear_15_516" x1="66.0916" y1="65.3909" x2="79.545" y2="79.0778" gradientUnits="userSpaceOnUse">
<stop stop-color="#FFD700"/>
<stop offset="0.02" stop-color="#FCD403"/>
<stop offset="0.22" stop-color="#E6BE19"/>
<stop offset="0.43" stop-color="#D7AD29"/>
<stop offset="0.68" stop-color="#CEA432"/>
<stop offset="1" stop-color="#CBA135"/>
</linearGradient>
</defs>
</svg>
