<svg width="17" height="16" viewBox="0 0 17 16" fill="none" xmlns="http://www.w3.org/2000/svg">
<mask id="mask0_276_90" style="mask-type:alpha" maskUnits="userSpaceOnUse" x="0" y="0" width="17" height="16">
<rect x="0.5" width="16" height="16" fill="#D9D9D9"/>
</mask>
<g mask="url(#mask0_276_90)">
<path d="M4.49992 13.3333C3.76659 13.3333 3.13881 13.0722 2.61659 12.55C2.09436 12.0278 1.83325 11.4 1.83325 10.6667V5.33333C1.83325 4.6 2.09436 3.97222 2.61659 3.45C3.13881 2.92778 3.76659 2.66667 4.49992 2.66667H12.4999C13.2333 2.66667 13.861 2.92778 14.3833 3.45C14.9055 3.97222 15.1666 4.6 15.1666 5.33333V10.6667C15.1666 11.4 14.9055 12.0278 14.3833 12.55C13.861 13.0722 13.2333 13.3333 12.4999 13.3333H4.49992ZM4.49992 5.33333H12.4999C12.7444 5.33333 12.9777 5.36111 13.1999 5.41667C13.4221 5.47222 13.6333 5.56111 13.8333 5.68333V5.33333C13.8333 4.96667 13.7027 4.65278 13.4416 4.39167C13.1805 4.13056 12.8666 4 12.4999 4H4.49992C4.13325 4 3.81936 4.13056 3.55825 4.39167C3.29714 4.65278 3.16659 4.96667 3.16659 5.33333V5.68333C3.36659 5.56111 3.5777 5.47222 3.79992 5.41667C4.02214 5.36111 4.25547 5.33333 4.49992 5.33333ZM3.26659 7.5L10.6833 9.3C10.7833 9.32222 10.8833 9.32222 10.9833 9.3C11.0833 9.27778 11.1777 9.23333 11.2666 9.16667L13.5833 7.23333C13.461 7.06667 13.3055 6.93056 13.1166 6.825C12.9277 6.71944 12.7221 6.66667 12.4999 6.66667H4.49992C4.21103 6.66667 3.95825 6.74167 3.74159 6.89167C3.52492 7.04167 3.36659 7.24444 3.26659 7.5Z" fill="white"/>
</g>
</svg>
